<svg fill="none" viewBox="0 0 512 512" xmlns="http://www.w3.org/2000/svg"><g fill="#000"><path d="m262.248 289.544c0 3.264-3.024 7.872-9.072 13.824s-10.8 9.888-14.256 11.808c-2.304 1.536-4.992 3.024-8.064 4.464s-5.952 2.736-8.64 3.888-5.184 2.16-7.488 3.024-4.272 1.632-5.904 2.304-2.544 1.008-2.736 1.008c-4.8 2.112-9.696 3.552-14.688 4.32s-8.976 1.2-11.952 1.296-5.904.72-8.784 1.872-5.424 3.552-7.632 7.2-4.272 9.12-6.192 16.416c-1.344 4.992-2.976 14.208-4.896 27.648s-4.464 24.864-7.632 34.272-7.92 17.184-14.256 23.328c-4.8 4.608-9.168 7.68-13.104 9.216s-7.152 1.728-9.648.576-4.752-3.072-6.768-5.76-3.408-6.048-4.176-10.08-1.344-8.064-1.728-12.096-.192-8.064.576-12.096c1.344-10.368 3.792-20.688 7.344-30.96s8.448-22.464 14.688-36.576 10.416-23.856 12.528-29.232c2.88-7.296 5.568-15.936 8.064-25.92.192-1.344.576-3.744 1.152-7.2s1.2-6.384 1.872-8.784 1.68-4.56 3.024-6.48c.768-1.152 2.064-2.592 3.888-4.32s3.6-3.408 5.328-5.04 3.456-3.312 5.184-5.04 3.12-3.6 4.176-5.616 1.584-4.08 1.584-6.192c0-4.992 3.072-15.744 9.216-32.256 6.144-16.704 13.056-33.12 20.736-49.248 13.632-29.568 21.12-46.08 22.464-49.536.576-1.152 1.2-2.736 1.872-4.752s1.296-3.888 1.872-5.616 1.248-3.6 2.016-5.616 1.632-3.888 2.592-5.616 2.016-3.312 3.168-4.752 2.496-2.64 4.032-3.6 3.264-1.632 5.184-2.016c6.336-.96 11.184.864 14.544 5.472s4.944 10.08 4.752 16.416c-.192 6.912-1.056 14.064-2.592 21.456s-3.264 13.968-5.184 19.728-4.704 12.528-8.352 20.304-6.72 13.92-9.216 18.432-6.048 10.944-10.656 19.296-7.968 14.448-10.08 18.288c-5.184 9.984-13.488 24.144-24.912 42.48s-17.904 28.848-19.44 31.536c-1.344 2.112-2.304 3.936-2.88 5.472s-.72 3.312-.432 5.328 1.152 3.744 2.592 5.184 3.456 2.4 6.048 2.88 6.96 1.008 13.104 1.584c3.456.384 7.248.096 11.376-.864s7.92-2.304 11.376-4.032 6.96-3.6 10.512-5.616 6.528-3.936 8.928-5.76 4.512-3.408 6.336-4.752 2.832-2.016 3.024-2.016c4.224-2.88 7.68-5.376 10.368-7.488 4.224-3.648 7.92-5.136 11.088-4.464s4.752 3.696 4.752 9.072zm-135.936 83.808c-.192.192-.384.576-.576 1.152-4.8 16.512-5.28 27.072-1.44 31.68 4.416-8.064 7.296-19.2 8.64-33.408.192-1.728-.096-2.976-.864-3.744-1.152-1.152-2.496-1.056-4.032.288-.768.768-1.344 2.112-1.728 4.032z"/><path d="m290.881 232.232c-6.336 7.68-11.808 14.88-16.416 21.6s-6.72 10.944-6.336 12.672c0 3.072 2.689 10.08 8.065 21.024 6.528 12.48 14.112 18.72 22.752 18.72 1.728 0 3.504-.192 5.328-.576s4.127-1.056 6.911-2.016 4.56-1.536 5.328-1.728c2.112-.576 5.569-2.304 10.369-5.184 5.952-3.648 11.615-7.584 16.991-11.808 4.224-3.648 7.921-5.136 11.089-4.464s4.848 3.696 5.04 9.072c0 1.728-.433 3.456-1.297 5.184s-1.775 3.216-2.735 4.464-2.352 2.688-4.176 4.32-3.312 2.832-4.464 3.6-2.785 1.872-4.897 3.312-3.455 2.352-4.032 2.736c-1.536.96-3.839 2.4-6.911 4.32s-5.377 3.36-6.913 4.32c-6.528 4.416-13.152 7.008-19.872 7.776-6.528.96-11.424 1.008-14.688.144s-8.063-3.408-14.399-7.632c-8.064-5.568-14.592-11.616-19.584-18.144s-8.353-12.768-10.081-18.72-2.591-12.864-2.591-20.736.479-14.928 1.439-21.168 2.16-13.92 3.6-23.04 2.256-16.944 2.448-23.472c.192-2.496.432-5.088.72-7.776s.576-5.136.864-7.344.72-4.848 1.296-7.92 1.009-5.472 1.297-7.2.911-4.272 1.871-7.632 1.584-5.712 1.872-7.056.96-3.888 2.016-7.632 1.729-6.096 2.017-7.056 1.055-3.504 2.303-7.632 1.968-6.576 2.16-7.344c2.112-7.104 3.936-12.288 5.472-15.552 1.728-3.456 4.08-6.864 7.056-10.224s5.665-6.096 8.065-8.208 5.616-4.8 9.648-8.064c1.536-1.152 4.175-3.264 7.919-6.336s6.481-5.232 8.209-6.48 4.08-2.976 7.056-5.184 5.856-4.128 8.64-5.76 5.807-3.216 9.071-4.752c7.297-3.648 12.961-4.992 16.993-4.032 3.072.768 5.664 2.448 7.776 5.04s3.551 5.52 4.319 8.784c.576 2.304 1.009 4.656 1.297 7.056s.336 4.992.143 7.776c-.192 2.784-.335 5.136-.431 7.056s-.529 4.512-1.297 7.776-1.295 5.616-1.583 7.056-1.056 3.936-2.305 7.488c-1.248 3.552-2.015 5.808-2.303 6.768s-1.152 3.408-2.592 7.344-2.256 6.192-2.448 6.768c-4.8 12.864-8.64 21.312-11.52 25.344-1.92 2.688-7.488 12.768-16.704 30.24-9.408 17.472-15.937 27.936-19.585 31.392-5.184 4.8-10.944 11.04-17.28 18.72zm-3.743-69.984c-2.112 1.92-4.561 8.448-7.345 19.584s-3.312 17.568-1.584 19.296c.96.768 2.544-.048 4.752-2.448s4.897-6.144 8.065-11.232 6.288-11.184 9.36-18.288c6.336-12.672 9.504-19.584 9.504-20.736 0-.576 2.975-7.104 8.927-19.584 5.952-12.288 8.929-19.776 8.929-22.464 0-5.568-2.497-6.144-7.489-1.728-3.264 2.496-6.431 6.432-9.503 11.808-4.8 8.832-9.313 15.936-13.537 21.312-3.84 4.992-5.76 9.696-5.76 14.112 0 4.224-1.439 7.68-4.319 10.368z"/><path d="m375.797 314.312c-2.112-1.152-2.401-5.472-.865-12.96s4.128-12.48 7.776-14.976c3.456-3.072 8.593-4.416 15.409-4.032s13.103 2.016 18.863 4.896c5.952 3.264 9.217 5.952 9.793 8.064s-.673 7.008-3.745 14.688c-3.648 8.064-7.343 13.344-11.087 15.84s-9.744 3.552-18 3.168c-9.408-.384-14.113-2.592-14.113-6.624s-1.344-6.72-4.031-8.064z"/></g></svg>